<?xml version="1.0" encoding="UTF-8" standalone="no"?>
<!-- Created with Inkscape (http://www.inkscape.org/) -->

<svg
   xmlns:ns1="http://www.iki.fi/pav/software/textext/"
   xmlns:dc="http://purl.org/dc/elements/1.1/"
   xmlns:cc="http://creativecommons.org/ns#"
   xmlns:rdf="http://www.w3.org/1999/02/22-rdf-syntax-ns#"
   xmlns:svg="http://www.w3.org/2000/svg"
   xmlns="http://www.w3.org/2000/svg"
   xmlns:sodipodi="http://sodipodi.sourceforge.net/DTD/sodipodi-0.dtd"
   xmlns:inkscape="http://www.inkscape.org/namespaces/inkscape"
   version="1.1"
   id="svg2"
   xml:space="preserve"
   width="306.16876"
   height="141.05975"
   viewBox="0 0 306.16876 141.05976"
   sodipodi:docname="dc_div2.svg"
   inkscape:version="0.92.4 (5da689c313, 2019-01-14)"><metadata
     id="metadata8"><rdf:RDF><cc:Work
         rdf:about=""><dc:format>image/svg+xml</dc:format><dc:type
           rdf:resource="http://purl.org/dc/dcmitype/StillImage" /><dc:title></dc:title></cc:Work></rdf:RDF></metadata><defs
     id="defs6" /><sodipodi:namedview
     pagecolor="#ffffff"
     bordercolor="#666666"
     borderopacity="1"
     objecttolerance="10"
     gridtolerance="10"
     guidetolerance="10"
     inkscape:pageopacity="0"
     inkscape:pageshadow="2"
     inkscape:window-width="1920"
     inkscape:window-height="1140"
     id="namedview4"
     showgrid="false"
     inkscape:zoom="1.7017185"
     inkscape:cx="93.359835"
     inkscape:cy="54.779872"
     inkscape:window-x="0"
     inkscape:window-y="31"
     inkscape:window-maximized="1"
     inkscape:current-layer="g1008" /><g
     id="g10"
     inkscape:groupmode="layer"
     inkscape:label="ink_ext_XXXXXX"
     transform="matrix(1.3333333,0,0,-1.3333333,-49.320889,151.01333)"><g
       id="g12"
       transform="scale(0.1)"><path
         d="m 2263.6,327.602 -400,240"
         style="fill:none;stroke:#231f20;stroke-width:10;stroke-linecap:butt;stroke-linejoin:miter;stroke-miterlimit:10;stroke-dasharray:none;stroke-opacity:1"
         id="path18"
         inkscape:connector-curvature="0" /><path
         d="m 2663.6,87.6016 -400,240.0004"
         style="fill:none;stroke:#231f20;stroke-width:10;stroke-linecap:butt;stroke-linejoin:miter;stroke-miterlimit:10;stroke-dasharray:none;stroke-opacity:1"
         id="path24"
         inkscape:connector-curvature="0" /><path
         d="m 1863.6,567.602 v 0"
         style="fill:none;stroke:#231f20;stroke-width:10;stroke-linecap:butt;stroke-linejoin:miter;stroke-miterlimit:10;stroke-dasharray:none;stroke-opacity:1"
         id="path26"
         inkscape:connector-curvature="0" /><path
         d="m 2663.6,1047.6 -800,-479.998"
         style="fill:none;stroke:#231f20;stroke-width:10;stroke-linecap:butt;stroke-linejoin:miter;stroke-miterlimit:10;stroke-dasharray:none;stroke-opacity:1"
         id="path28"
         inkscape:connector-curvature="0" /><path
         d="m 1063.6,567.602 c 3.9633,-256.16948 259.0898,-364.17915 480,-320 161.4798,32.29385 287.7,158.519 320,320"
         style="fill:none;stroke:#231f20;stroke-width:37.5;stroke-linecap:butt;stroke-linejoin:miter;stroke-miterlimit:10;stroke-dasharray:none;stroke-opacity:1"
         id="path38"
         inkscape:connector-curvature="0"
         sodipodi:nodetypes="csc" /><path
         inkscape:connector-curvature="0"
         id="path944"
         style="fill:none;stroke:#231f20;stroke-width:10;stroke-linecap:butt;stroke-linejoin:miter;stroke-miterlimit:10;stroke-dasharray:36.92310068, 36.92310068;stroke-dashoffset:0;stroke-opacity:1"
         d="M 1463.6,74.651779 V 404.80124" /><g
         id="g893"
         transform="matrix(2.3459168,0,0,2.4930595,-1953.9094,-356.77119)"
         style="stroke-width:0.41350177"><path
           inkscape:connector-curvature="0"
           id="path40"
           style="fill:none;stroke:#231f20;stroke-width:4.13501787;stroke-linecap:butt;stroke-linejoin:miter;stroke-miterlimit:10;stroke-dasharray:none;stroke-opacity:1"
           d="m 1488.6,239.68 -50,20 10,-20 -10,-20 z" /><path
           inkscape:connector-curvature="0"
           id="path42"
           style="fill:#231f20;fill-opacity:1;fill-rule:nonzero;stroke:none;stroke-width:0.41350177"
           d="m 1488.6,239.68 -50,20 10,-20 -10,-20 z" /></g><path
         d="m 2083.6,567.602 c 0,121.5 -98.5,220 -220,220 -121.5,0 -220,-98.5 -220,-220 0,-121.5 98.5,-220 220,-220 121.5,0 220,98.5 220,220"
         style="fill:#ffffff;fill-opacity:1;fill-rule:nonzero;stroke:none"
         id="path46"
         inkscape:connector-curvature="0" /><path
         inkscape:connector-curvature="0"
         id="path887"
         style="fill:none;stroke:#231f20;stroke-width:37.5;stroke-linecap:butt;stroke-linejoin:miter;stroke-miterlimit:10;stroke-dasharray:none;stroke-opacity:1"
         d="m 1063.6,567.602 c -3.1986,277.1042 259.0898,364.17915 480,320 161.4798,-32.29385 287.7,-158.519 320,-320"
         sodipodi:nodetypes="csc" /><path
         d="m 2083.6,567.602 c 0,121.5 -98.5,220 -220,220 -121.5,0 -220,-98.5 -220,-220 0,-121.5 98.5,-220 220,-220 121.5,0 220,98.5 220,220"
         style="fill:#e1e1e1;fill-opacity:1;fill-rule:nonzero;stroke:none"
         id="path48"
         inkscape:connector-curvature="0" /><path
         d="m 2083.6,567.602 c 0,121.5 -98.5,220 -220,220 -121.5,0 -220,-98.5 -220,-220 0,-121.5 98.5,-220 220,-220 121.5,0 220,98.5 220,220"
         style="fill:none;stroke:#000000;stroke-width:10;stroke-linecap:butt;stroke-linejoin:miter;stroke-miterlimit:10;stroke-dasharray:none;stroke-opacity:1"
         id="path50"
         inkscape:connector-curvature="0" /><path
         d="m 2333.6,737.602 c 0,11.043 -8.96,20 -20,20 -11.04,0 -20,-8.957 -20,-20 0,-11.043 8.96,-20 20,-20 11.04,0 20,8.957 20,20"
         style="fill:#231f20;fill-opacity:1;fill-rule:nonzero;stroke:none"
         id="path52"
         inkscape:connector-curvature="0" /><path
         d="m 2373.6,587.602 c 0,11.043 -8.96,20 -20,20 -11.04,0 -20,-8.957 -20,-20 0,-11.043 8.96,-20 20,-20 11.04,0 20,8.957 20,20"
         style="fill:#231f20;fill-opacity:1;fill-rule:nonzero;stroke:none"
         id="path54"
         inkscape:connector-curvature="0" /><path
         d="m 2333.6,417.602 c 0,11.043 -8.96,20 -20,20 -11.04,0 -20,-8.957 -20,-20 0,-11.043 8.96,-20 20,-20 11.04,0 20,8.957 20,20"
         style="fill:#231f20;fill-opacity:1;fill-rule:nonzero;stroke:none"
         id="path56"
         inkscape:connector-curvature="0" /><path
         d="m 1463.6,1127.6 v 0"
         style="fill:none;stroke:#231f20;stroke-width:10;stroke-linecap:butt;stroke-linejoin:miter;stroke-miterlimit:10;stroke-dasharray:none;stroke-opacity:1"
         id="path58"
         inkscape:connector-curvature="0" /><path
         d="M 1463.6,729.13724 V 1059.2867"
         style="fill:none;stroke:#231f20;stroke-width:10;stroke-linecap:butt;stroke-linejoin:miter;stroke-miterlimit:10;stroke-dasharray:36.92310068, 36.92310068;stroke-dashoffset:0;stroke-opacity:1"
         id="path60"
         inkscape:connector-curvature="0" /><path
         d="m 1463.6,487.602 v 0"
         style="fill:none;stroke:#231f20;stroke-width:10;stroke-linecap:butt;stroke-linejoin:miter;stroke-miterlimit:10;stroke-dasharray:none;stroke-opacity:1"
         id="path62"
         inkscape:connector-curvature="0" /><path
         id="path938"
         title="t+cos(3*t) 3*sin(3*t)"
         d="m 372.30941,529.98588 c 4.86885,-4.06323 10.28351,-6.28115 15.71516,-6.37658 5.43161,-0.0954 10.87047,1.94378 15.78754,5.84139 4.91712,3.89759 9.3009,9.65463 12.7622,16.5145 3.4613,6.85986 5.98984,14.81222 7.43911,22.82018 1.44931,8.00798 1.813,16.05256 1.22606,23.09081 -0.5869,7.03827 -2.1251,13.04758 -4.23381,17.2548 -2.10874,4.20721 -4.78285,6.59204 -7.49664,6.85554 -2.71377,0.26353 -5.45751,-1.60684 -7.69948,-5.35669 -2.24192,-3.7499 -3.97056,-9.3808 -4.78865,-16.15236 -0.81813,-6.77157 -0.71536,-14.67386 0.46591,-22.6763 1.1812,-8.00242 3.44739,-16.08626 6.67466,-23.20323 3.22734,-7.117 7.41668,-13.24448 12.19568,-17.59383 4.77905,-4.34934 10.1428,-6.90003 15.56881,-7.33151 5.42598,-0.43149 10.90478,1.2692 15.90192,4.86969 4.99718,3.60049 9.50115,9.10279 13.10704,15.78307 3.60588,6.68028 6.30312,14.52902 7.92324,22.52241 1.62013,7.99337 2.15642,16.1129 1.72143,23.30545 -0.43494,7.19256 -1.84235,13.43553 -3.85819,17.92511 -2.01591,4.48956 -4.63561,7.20498 -7.3401,7.80424 -2.70457,0.59925 -5.48467,-0.93101 -7.80346,-4.38055 -2.3188,-3.44952 -4.16493,-8.82077 -5.12564,-15.40683 -0.96074,-6.58602 -1.02551,-14.3778 -0.0157,-22.35859 1.01054,-7.98079 3.10334,-16.13246 6.1771,-23.39741 3.07378,-7.26493 7.12982,-13.62067 11.813,-18.24846 4.68318,-4.62781 9.98896,-7.50678 15.40216,-8.27353 5.41322,-0.76678 10.92465,0.59238 15.99545,3.88944 5.07079,3.29701 9.68949,8.53488 13.43597,15.02378 3.74651,6.48892 6.61008,14.22025 8.40058,22.18496 1.7905,7.9647 2.50085,16.14489 2.22095,23.47903 -0.27996,7.33415 -1.55153,13.79984 -3.46862,18.56382 -1.91707,4.76399 -4.47526,7.80523 -7.16344,8.73918 -2.68818,0.93395 -5.49728,-0.25351 -7.88648,-3.39664 -2.38924,-3.14309 -4.34716,-8.24523 -5.44641,-14.63414 -1.09922,-6.38891 -1.32909,-14.05643 -0.48856,-22.00154 0.84053,-7.94508 2.75872,-16.1502 5.67588,-23.55032 2.91716,-7.40013 6.83521,-13.97289 11.41667,-18.87096 4.58148,-4.89811 9.82233,-8.10029 15.21561,-9.20099 5.39326,-1.10071 10.93004,-0.0856 16.06796,2.90232 5.13788,2.98778 9.86551,7.95197 13.74839,14.23807 3.88286,6.28612 6.91016,13.88642 8.87031,21.80841 1.96011,7.922 2.84562,16.1484 2.72371,23.61123 -0.12188,7.46283 -1.25321,14.13979 -3.06572,19.16984 -1.81251,5.03003 -4.30234,8.39172 -6.96703,9.65872 -2.66469,1.26697 -5.49542,0.42439 -7.94842,-2.40676 -2.45303,-2.83112 -4.51691,-7.65516 -5.75038,-13.83571 -1.23347,-6.18052 -1.62556,-13.71023 -0.95419,-21.60565 0.67141,-7.89541 2.41395,-16.13952 5.1718,-23.66177 2.75785,-7.52225 6.53333,-14.30047 11.00742,-19.46024 4.47405,-5.15976 9.64316,-8.67951 15.00935,-10.1122 5.36621,-1.43269 10.92102,-0.76313 16.11936,1.9101 5.19837,2.67326 10.02895,7.35503 14.04378,13.42727 4.01484,6.07221 7.20288,13.52808 9.33157,21.39342 2.12872,7.86534 3.19019,16.12348 3.22891,23.70184 0.0389,7.57837 -0.94789,14.45484 -2.65027,19.74206 -1.70235,5.28721 -4.11704,8.96345 -6.75113,10.56124 -2.63407,1.5978 -5.47914,1.10157 -7.98921,-1.4126 -2.51006,-2.51421 -4.67394,-7.05163 -6.03706,-13.0129 -1.36308,-5.96126 -1.91437,-13.33995 -1.41089,-21.17175 0.50349,-7.83181 2.06973,-16.10037 4.66577,-23.73151 2.59605,-7.63113 6.22472,-14.60284 10.58594,-20.01516 4.36115,-5.41236 9.45179,-9.24346 14.7839,-11.00563 5.3321,-1.76217 10.89747,-1.43952 16.14951,0.9145 5.25199,2.35403 10.17949,6.74511 14.32159,12.59277 4.14208,5.84767 7.48766,13.14593 9.78357,20.94076 2.29589,7.79481 3.53391,16.07013 3.73557,23.75069 0.20163,7.68055 -0.63618,14.74443 -2.22295,20.27949 -1.58683,5.53508 -3.91973,9.51939 -6.51618,11.44516 -2.59648,1.92578 -5.44841,1.77682 -8.00875,-0.41599 -2.56033,-2.19281 -4.81793,-6.43566 -6.30587,-12.16713 -1.48797,-5.73146 -2.19505,-12.94611 -1.85799,-20.70052 0.33706,-7.75439 1.72663,-16.03284 4.15871,-23.75942 2.43208,-7.72658 5.90992,-14.87951 10.15294,-20.53487 4.24302,-5.65539 9.24855,-9.79112 14.53957,-11.87966 5.29099,-2.08853 10.85957,-2.11333 16.15839,-0.0826 5.29883,2.03063 10.3169,6.12334 14.58133,11.73612 4.26448,5.61277 7.76409,12.74061 10.22554,20.45116 2.46146,7.71058 3.87624,15.98851 4.2428,23.7577 0.36662,7.76919 -0.31831,15.00803 -1.78451,20.7812 -1.46607,5.77319 -3.71069,10.05853 -6.26257,12.3089 -2.55186,2.25038 -5.4033,2.44892 -8.00698,0.58137 -2.60366,-1.86758 -4.94863,-5.80834 -6.55644,-11.29992 -1.60777,-5.49162 -2.46704,-12.52951 -2.29458,-20.19285 0.17254,-7.66333 1.38526,-15.93708 3.65147,-23.74548 2.2662,-7.8084 5.58952,-15.12994 9.7093,-21.01837 4.11975,-5.88847 9.03382,-10.32153 14.27677,-12.73275 5.24295,-2.41123 10.80728,-2.78343 16.14597,-1.07975 5.3387,1.70366 10.4409,5.49076 14.82262,10.85875 4.38169,5.36803 8.03158,12.31287 10.6566,19.92557 2.62504,7.61273 4.2165,15.87868 4.74981,23.72284 0.53329,7.84415 0.004,15.24519 -1.33583,21.24631 -1.34036,6.00111 -3.49032,10.57995 -5.99071,13.15095 -2.50042,2.57102 -5.34388,3.11672 -7.98393,1.57768 -2.64004,-1.53902 -5.06589,-5.17078 -6.78826,-10.41283 -1.72241,-5.24203 -2.72993,-12.09078 -2.72003,-19.64954 0.009,-7.55876 1.04629,-15.81324 3.14506,-23.6897 2.0987,-7.87647 5.264,-15.35372 9.25567,-21.46487 3.99164,-6.11113 8.80793,-10.83371 13.99601,-13.56337 5.18805,-2.72968 10.74073,-3.44863 16.11229,-2.07492 5.37155,1.37369 10.5513,4.84851 15.04492,9.96229 4.49362,5.11379 8.28971,11.86341 11.07613,19.36485 2.78644,7.50146 4.55407,15.74087 5.25555,23.64618 0.70143,7.90527 0.33231,15.45546 -0.87758,21.67395 -1.20984,6.21847 -3.25903,11.08273 -5.70114,13.96985 -2.44211,2.8871 -5.27024,3.77899 -7.93963,2.57121 -2.66938,-1.20777 -5.1694,-4.52411 -7.00095,-9.50736 -1.83154,-4.98325 -2.98319,-11.63078 -3.13342,-19.07163 -0.15025,-7.44088 0.71022,-15.66157 2.64016,-23.5922 1.92999,-7.93065 4.93407,-15.55044 8.79297,-21.87352 3.8589,-6.32306 8.57131,-11.32686 13.69779,-14.37015 5.12643,-3.04329 10.66002,-4.10772 16.0574,-3.0664 5.39732,1.04131 10.64789,4.1977 15.24788,9.04827 4.59999,4.85052 8.53804,11.39302 11.4833,18.77 2.94529,7.37699 4.88843,15.57535 5.75921,23.52785 0.87076,7.95248 0.66433,15.63856 -0.41056,22.06342 -1.07488,6.42488 -3.01719,11.56599 -5.39434,14.76412 -2.37718,3.19813 -5.18257,4.43463 -7.87418,3.56023 -2.69158,-0.87439 -5.25899,-3.86947 -7.19415,-8.58515 -1.9351,-4.71569 -3.2264,-11.15029 -3.53415,-18.46013 -0.30784,-7.30986 0.3777,-15.48228 2.13789,-23.45311 1.76017,-7.97086 4.60022,-15.71978 8.3219,-22.24363 3.72177,-6.52386 8.32443,-11.80003 13.38258,-15.15158 5.05814,-3.35156 10.56539,-4.75961 15.9814,-4.05252 5.41602,0.70711 10.73049,3.53954 15.43115,8.1183 4.70073,4.57874 8.77609,10.9026 11.87741,18.14211 3.10139,7.23951 5.21901,15.38236 6.25996,23.36803 1.04097,7.9857 0.99992,15.79408 0.0642,22.41403 -0.9356,6.61998 -2.76531,12.02887 -5.07087,15.53238 -2.30561,3.50351 -5.08093,5.08247 -7.78763,4.543 -2.70671,-0.53949 -5.33461,-3.20803 -7.36748,-7.64785 -2.03286,-4.43981 -3.45919,-10.65013 -3.92149,-17.8161 -0.46227,-7.16598 0.0492,-15.27567 1.63899,-23.27269 1.58968,-7.99701 4.263,-15.86139 7.84339,-22.57456 3.58038,-6.71314 8.0676,-12.25238 13.05093,-15.90629 4.98337,-3.65393 10.45691,-5.40312 15.88442,-5.03147 5.42752,0.37163 10.79899,2.8751 15.59446,7.174 4.79547,4.29889 9.00345,10.39296 12.25778,17.48223 3.25435,7.08929 5.54511,15.16229 6.75679,23.16711 1.21174,8.00479 1.33854,15.92174 0.54628,22.72512 -0.79227,6.80338 -2.5037,12.47051 -4.73129,16.27324 -2.22757,3.80274 -4.96557,5.72135 -7.6802,5.51773 -2.71469,-0.20369 -5.39597,-2.54093 -7.52063,-6.69702 -2.12465,-4.15611 -3.68109,-10.13122 -4.29471,-17.14067 -0.61364,-7.00946 -0.2744,-15.04219 1.14435,-23.05126 1.4188,-8.0091 3.92311,-15.9751 7.35825,-22.86573 3.43514,-6.8906 7.80134,-12.68316 12.70351,-16.63302 4.90215,-3.94983 10.33476,-6.03705 15.76671,-6.00153 5.4318,0.0355 10.8532,2.20561 15.7375,6.21708 4.8842,4.01146 9.2195,9.86499 12.6238,16.79155 3.4039,6.92656 5.8661,14.91547 7.2488,22.92531 1.3828,8.00983 1.6795,16.02136 1.0344,22.99618 -0.6453,6.97483 -2.2329,12.89025 -4.3762,16.98548 -2.1432,4.09521 -4.8366,6.35013 -7.5521,6.48274 -2.7155,0.13257 -5.4428,-1.86935 -7.6532,-5.73443 -2.2103,-3.86506 -3.8917,-9.59445 -4.6532,-16.43505 -0.7615,-6.8406 -0.5928,-14.78218 0.6548,-22.78921 1.2479,-8.00705 3.581,-16.06061 6.8674,-23.11657 3.2862,-7.05592 7.526,-13.0916 12.3409,-17.33041 4.8146,-4.23882 10.1992,-6.66042 15.6281,-6.96106 5.4292,-0.30068 10.8933,1.5322 15.8598,5.24919 4.9668,3.71698 9.4246,9.31968 12.9747,16.07129 3.55,6.75166 6.1818,14.64239 7.7355,22.64314"
         style="opacity:1;fill:none;fill-opacity:0.10434786;stroke:#000000;stroke-width:7.50000048;stroke-linecap:butt;stroke-linejoin:miter;stroke-miterlimit:0;stroke-dasharray:none;stroke-dashoffset:33.31439972;stroke-opacity:0.89803922;paint-order:normal"
         inkscape:connector-curvature="0"
         sodipodi:nodetypes="cccscccccccccccccccccccscccsccccccsssccccccccsccccccccccccssccccsccccccsccccccccccccccccscccscccsccsccccscccsccccccccccscccccccccccccccsscccccccccccccccccsccccccc" /><g
         id="g1008"
         ns1:jacobian_sqrt="5.333333"
         inkscapeversion="0.92.4"
         ns1:alignment="middle center"
         ns1:scale="4.0"
         ns1:preamble="/home/vs1025/.config/inkscape/extensions/textext/default_packages.tex"
         ns1:text="$$p^2=0$$"
         ns1:pdfconverter="pdf2svg"
         ns1:texconverter="pdflatex"
         ns1:version="0.11.0"
         transform="matrix(11.707312,0,0,-11.707312,-2835.8383,2108.6605)"
         style="stroke-width:0.45555571"><g
   id="surface1"
   style="stroke-width:0.45555571"
   transform="translate(-4.1410363)">
<g
   id="g993"
   style="fill:#000000;fill-opacity:1;stroke-width:0.45555571">
  <path
   id="path991"
   transform="translate(291.751,146.72)"
   d="M 0.453125,1.21875 C 0.375,1.5625 0.34375,1.625 -0.09375,1.625 c -0.109375,0 -0.21875,0 -0.21875,0.1875 0,0.078125 0.046875,0.125 0.125,0.125 0.265625,0 0.5625,-0.03125 0.828125,-0.03125 0.34375,0 0.671875,0.03125 1,0.03125 0.046875,0 0.171875,0 0.171875,-0.203125 C 1.8125,1.625 1.71875,1.625 1.578125,1.625 c -0.5,0 -0.5,-0.0625 -0.5,-0.15625 0,-0.125 0.421875,-1.75 0.484375,-2 0.125,0.296875 0.40625,0.640625 0.921875,0.640625 1.15625,0 2.40625,-1.453125 2.40625,-2.921875 0,-0.9375 -0.578125,-1.59375 -1.328125,-1.59375 -0.5,0 -0.984375,0.359375 -1.3125,0.75 -0.09375,-0.546875 -0.53125,-0.75 -0.890625,-0.75 -0.46875,0 -0.65625,0.390625 -0.734375,0.5625 C 0.4375,-3.5 0.3125,-2.90625 0.3125,-2.875 c 0,0.109375 0.09375,0.109375 0.109375,0.109375 0.109375,0 0.109375,-0.015625 0.171875,-0.234375 0.171875,-0.703125 0.375,-1.1875 0.734375,-1.1875 0.171875,0 0.3125,0.078125 0.3125,0.453125 0,0.234375 -0.03125,0.34375 -0.078125,0.515625 z m 1.75,-4.328125 C 2.265625,-3.375 2.546875,-3.65625 2.71875,-3.8125 c 0.359375,-0.296875 0.640625,-0.375 0.8125,-0.375 0.390625,0 0.640625,0.34375 0.640625,0.9375 0,0.59375 -0.328125,1.734375 -0.515625,2.109375 -0.34375,0.703125 -0.8125,1.03125 -1.1875,1.03125 C 1.8125,-0.109375 1.6875,-0.9375 1.6875,-1 c 0,-0.015625 0,-0.03125 0.03125,-0.15625 z m 0,0"
   style="stroke:none;stroke-width:0"
   inkscape:connector-curvature="0" />
</g>
<g
   id="g997"
   style="fill:#000000;fill-opacity:1;stroke-width:0.45555571">
  <path
   id="path995"
   transform="translate(296.763,142.606)"
   d="M 3.515625,-1.265625 H 3.28125 c -0.015625,0.15625 -0.09375,0.5625 -0.1875,0.625 C 3.046875,-0.59375 2.515625,-0.59375 2.40625,-0.59375 H 1.125 c 0.734375,-0.640625 0.984375,-0.84375 1.390625,-1.171875 0.515625,-0.40625 1,-0.84375 1,-1.5 0,-0.84375 -0.734375,-1.359375 -1.625,-1.359375 -0.859375,0 -1.453125,0.609375 -1.453125,1.25 0,0.34375 0.296875,0.390625 0.375,0.390625 0.15625,0 0.359375,-0.125 0.359375,-0.375 0,-0.125 -0.046875,-0.375 -0.40625,-0.375 C 0.984375,-4.21875 1.453125,-4.375 1.78125,-4.375 c 0.703125,0 1.0625,0.546875 1.0625,1.109375 0,0.609375 -0.4375,1.078125 -0.65625,1.328125 L 0.515625,-0.265625 C 0.4375,-0.203125 0.4375,-0.1875 0.4375,0 h 2.875 z m 0,0"
   style="stroke:none;stroke-width:0"
   inkscape:connector-curvature="0" />
</g>
<g
   id="g1001"
   style="fill:#000000;fill-opacity:1;stroke-width:0.45555571">
  <path
   id="path999"
   transform="translate(304,146.72)"
   d="m 6.84375,-3.265625 c 0.15625,0 0.34375,0 0.34375,-0.1875 C 7.1875,-3.65625 7,-3.65625 6.859375,-3.65625 h -5.96875 c -0.140625,0 -0.328125,0 -0.328125,0.203125 0,0.1875 0.1875,0.1875 0.328125,0.1875 z m 0.015625,1.9375 c 0.140625,0 0.328125,0 0.328125,-0.203125 0,-0.1875 -0.1875,-0.1875 -0.34375,-0.1875 H 0.890625 c -0.140625,0 -0.328125,0 -0.328125,0.1875 0,0.203125 0.1875,0.203125 0.328125,0.203125 z m 0,0"
   style="stroke:none;stroke-width:0"
   inkscape:connector-curvature="0" />
</g>
<g
   id="g1005"
   style="fill:#000000;fill-opacity:1;stroke-width:0.45555571">
  <path
   id="path1003"
   transform="translate(314.51851,146.72)"
   d="m 4.578125,-3.1875 c 0,-0.796875 -0.046875,-1.59375 -0.390625,-2.328125 -0.453125,-0.96875 -1.28125,-1.125 -1.6875,-1.125 -0.609375,0 -1.328125,0.265625 -1.75,1.1875 -0.3125,0.6875 -0.359375,1.46875 -0.359375,2.265625 0,0.75 0.03125,1.640625 0.453125,2.40625 0.421875,0.796875 1.15625,1 1.640625,1 0.53125,0 1.296875,-0.203125 1.734375,-1.15625 0.3125,-0.6875 0.359375,-1.46875 0.359375,-2.25 z M 2.484375,0 C 2.09375,0 1.5,-0.25 1.328125,-1.203125 1.21875,-1.796875 1.21875,-2.71875 1.21875,-3.3125 c 0,-0.640625 0,-1.296875 0.078125,-1.828125 0.1875,-1.1875 0.9375,-1.28125 1.1875,-1.28125 0.328125,0 0.984375,0.1875 1.171875,1.171875 0.109375,0.5625 0.109375,1.3125 0.109375,1.9375 0,0.75 0,1.421875 -0.109375,2.0625 C 3.5,-0.296875 2.9375,0 2.484375,0 Z m 0,0"
   style="stroke:none;stroke-width:0"
   inkscape:connector-curvature="0" />
</g>
</g>
</g><g
         style="stroke-width:0.41350177"
         transform="matrix(-2.3459168,0,0,2.4930595,4873.2236,296.65275)"
         id="g1090"><path
           d="m 1488.6,239.68 -50,20 10,-20 -10,-20 z"
           style="fill:none;stroke:#231f20;stroke-width:4.13501787;stroke-linecap:butt;stroke-linejoin:miter;stroke-miterlimit:10;stroke-dasharray:none;stroke-opacity:1"
           id="path1086"
           inkscape:connector-curvature="0" /><path
           d="m 1488.6,239.68 -50,20 10,-20 -10,-20 z"
           style="fill:#231f20;fill-opacity:1;fill-rule:nonzero;stroke:none;stroke-width:0.41350177"
           id="path1088"
           inkscape:connector-curvature="0" /></g></g></g></svg>